<svg xmlns="http://www.w3.org/2000/svg" xmlns:xlink="http://www.w3.org/1999/xlink" width="74" height="89.95" viewBox="0 0 74 89.95"><defs><linearGradient id="a" x1="0.5" x2="0.5" y2="1" gradientUnits="objectBoundingBox"><stop offset="0" stop-color="#35cf8d"/><stop offset="1" stop-color="#40aeb7"/></linearGradient></defs><g transform="translate(-936 -39)"><path d="M85.8,20.2l-35-15a2.208,2.208,0,0,0-1.6,0l-35,15A1.975,1.975,0,0,0,13,22V39.9A59.648,59.648,0,0,0,49.2,94.8a1.7,1.7,0,0,0,1.6,0A59.648,59.648,0,0,0,87,39.9V22A1.975,1.975,0,0,0,85.8,20.2ZM83,39.9A55.73,55.73,0,0,1,50,90.8,55.73,55.73,0,0,1,17,39.9V23.3L50,9.2,83,23.3Z" transform="translate(923 33.95)" fill="url(#a)"/><path d="M12.209,32.558a5.908,5.908,0,0,0,3.856,1.714c5.783,0,7.068-4.284,7.283-7.711.428-4.927,1.714-4.712,2.356-4.712,1.5,0,1.928.857,1.928,2.356a4.418,4.418,0,0,0-2.142,3.641,4.284,4.284,0,1,0,4.284-4.284h-.428c-.428-1.928-1.5-3.856-3.856-3.856-3.427,0-4.284,3-4.5,6.212-.214,4.5-1.714,6.212-4.927,6.212a3.272,3.272,0,0,1-2.142-.857c-1.285-1.071-1.071-4.927-1.071-4.927,4.284,0,8.568-3.856,10.067-10.281l-.428-.214a35,35,0,0,0,1.071-7.711A6.512,6.512,0,0,0,21.42,2.785a7.01,7.01,0,0,0-4.5-1.714A2.249,2.249,0,0,0,14.994,0a2.146,2.146,0,0,0-2.142,2.142,2.024,2.024,0,0,0,2.142,2.142,1.7,1.7,0,0,0,1.714-1.071A5.144,5.144,0,0,1,19.92,4.5a4.155,4.155,0,0,1,1.5,3.641,36.9,36.9,0,0,1-1.071,7.5l-.428-.214c-.643,2.356-2.785,7.711-7.068,7.711H10.71c-4.284,0-6.426-5.355-7.068-7.711l-.428.214a36.9,36.9,0,0,1-1.071-7.5A4.155,4.155,0,0,1,3.641,4.5,6.029,6.029,0,0,1,6.854,3.213,1.7,1.7,0,0,0,8.568,4.284,2.024,2.024,0,0,0,10.71,2.142,2.024,2.024,0,0,0,8.568,0,2.249,2.249,0,0,0,6.64,1.071a7.01,7.01,0,0,0-4.5,1.714A6.512,6.512,0,0,0,0,8.139a38.636,38.636,0,0,0,1.071,7.925l-.428.214c1.5,6.212,5.783,10.067,10.067,10.067,0,0-.214,4.712,1.5,6.212Zm17.778-2.57a2.142,2.142,0,1,1,2.142-2.142A2.146,2.146,0,0,1,29.988,29.988Z" transform="translate(956 67)" fill="url(#a)"/><path d="M27,3a24.007,24.007,0,0,0-9.341,46.115A24.007,24.007,0,0,0,36.341,4.885,23.847,23.847,0,0,0,27,3m0-3A27,27,0,1,1,0,27,27,27,0,0,1,27,0Z" transform="translate(946 57)" fill="url(#a)"/></g></svg>